<?xml version="1.0" encoding="UTF-8"?>
<svg xmlns="http://www.w3.org/2000/svg" xmlns:xlink="http://www.w3.org/1999/xlink" xmlns:svgjs="http://svgjs.com/svgjs" version="1.1" width="512" height="512" x="0" y="0" viewBox="0 0 512 512" style="enable-background:new 0 0 512 512" xml:space="preserve" class="">
  <g>
<path xmlns="http://www.w3.org/2000/svg" style="" d="M213.548,43.599L213.548,43.599c-12.765-5.464-26.5-8.289-40.386-8.289l0,0  c-56.629,0-102.541,45.912-102.541,102.541l0,0c0,48.366,13.594,95.762,39.23,136.775l4.908,7.857l22.855,167.574  c2.083,15.254,15.113,26.633,30.508,26.633l0,0c15.051,0,27.895-10.884,30.376-25.732l26.668-160.009  c2.516-15.078,15.554-26.121,30.835-26.121l0,0c15.281,0,28.319,11.043,30.835,26.121l26.668,160.009  c2.481,14.848,15.325,25.732,30.376,25.732l0,0c15.395,0,28.425-11.379,30.508-26.633l22.855-167.574l4.908-7.857  c25.635-41.013,39.23-88.408,39.23-136.775l0,0c0-56.629-45.912-102.541-102.541-102.541l0,0l0,0  c-13.886,0-27.622,2.825-40.386,8.289l0,0C271.342,55.217,240.658,55.217,213.548,43.599z" fill="#ffffff" data-original="#e6e6e6" class=""/>
<path xmlns="http://www.w3.org/2000/svg" style="" d="M388.414,48.11C332.156,181.99,206.504,259.478,117.08,299.538l20.533,150.519  c2.251,16.852,17.735,28.698,34.586,26.447c13.444-1.792,24.135-12.173,26.324-25.565l26.668-160.009  c2.834-17.028,18.935-28.54,35.964-25.706c13.18,2.189,23.517,12.526,25.706,25.706l26.668,160.009  c2.737,16.781,18.556,28.169,35.346,25.441c13.391-2.18,23.773-12.871,25.565-26.324l22.802-167.574l4.908-7.857  c25.635-41.013,39.23-88.408,39.23-136.775l0,0C441.379,100.529,421.094,66.145,388.414,48.11z" fill="#ffffff" data-original="#dedede" class=""/>
<rect xmlns="http://www.w3.org/2000/svg" x="342.124" y="406.058" transform="matrix(-0.7071 0.7071 -0.7071 -0.7071 941.3422 439.8544)" style="" width="74.901" height="17.655" fill="#4198f7" data-original="#a2daeb" class=""/>
<polygon xmlns="http://www.w3.org/2000/svg" style="" points="512,256 388.414,379.586 414.897,406.069 512,308.966 " fill="#0d53fc" data-original="#4398d1" class=""/>
<ellipse xmlns="http://www.w3.org/2000/svg" style="" cx="308.966" cy="467.862" rx="61.793" ry="44.138" fill="#4198f7" data-original="#a2daeb" class=""/>
<g xmlns="http://www.w3.org/2000/svg">
	<path style="" d="M123.586,150.069h-17.655c0-47.625,33.545-66.904,51.2-70.444l3.46,17.302l-1.695-8.651l1.766,8.642   C159.161,97.245,123.586,105.304,123.586,150.069z" fill="#0d53fc" data-original="#f2f2f2" class=""/>
	<rect x="176.552" y="79.448" style="" width="17.655" height="17.655" fill="#0d53fc" data-original="#f2f2f2" class=""/>
</g>
<g xmlns="http://www.w3.org/2000/svg">
	
		<rect x="45.649" y="103.312" transform="matrix(-0.7071 0.7071 -0.7071 -0.7071 211.2601 169.0542)" style="" width="49.937" height="49.937" fill="#4198f7" data-original="#a2daeb" class=""/>
	<path style="" d="M156.593,264.828c-19.871-0.018-35.955-16.146-35.937-36.008c0.009-5.579,1.306-11.079,3.814-16.075   l6.065-12.129L82.07,152.152l12.482-12.482l48.463,48.463c5.376,5.376,6.709,13.586,3.31,20.383l-6.1,12.173   c-4.511,9.057-0.83,20.056,8.218,24.567c4.67,2.33,10.116,2.551,14.963,0.618l27.516-11.061l6.568,16.393l-27.533,11.008   C165.711,263.927,161.174,264.819,156.593,264.828z" fill="#4198f7" data-original="#a2daeb" class=""/>
</g>
<polygon xmlns="http://www.w3.org/2000/svg" style="" points="0,0 79.448,84.153 26.483,137.119 0,114.759 " fill="#0d53fc" data-original="#4398d1" class=""/>
<g xmlns="http://www.w3.org/2000/svg">
</g>
<g xmlns="http://www.w3.org/2000/svg">
</g>
<g xmlns="http://www.w3.org/2000/svg">
</g>
<g xmlns="http://www.w3.org/2000/svg">
</g>
<g xmlns="http://www.w3.org/2000/svg">
</g>
<g xmlns="http://www.w3.org/2000/svg">
</g>
<g xmlns="http://www.w3.org/2000/svg">
</g>
<g xmlns="http://www.w3.org/2000/svg">
</g>
<g xmlns="http://www.w3.org/2000/svg">
</g>
<g xmlns="http://www.w3.org/2000/svg">
</g>
<g xmlns="http://www.w3.org/2000/svg">
</g>
<g xmlns="http://www.w3.org/2000/svg">
</g>
<g xmlns="http://www.w3.org/2000/svg">
</g>
<g xmlns="http://www.w3.org/2000/svg">
</g>
<g xmlns="http://www.w3.org/2000/svg">
</g>
</g>
</svg>
